<svg height="800" width="800" version="1.1" id="_x32_" xmlns="http://www.w3.org/2000/svg" viewBox="0 0 512 512" xml:space="preserve"><path class="st0" d="M324.708 174.596c-12.583-2.092-41.546-2.322-65.932 2.992-1.562-1.032-3.128-2.099-4.672-3.048-4.714-2.887-9.337-5.328-13.929-7.168-4.452-1.771-8.891-2.991-13.535-3.236v-.02a247.976 247.976 0 0 0-19.918-.816c-9.453.014-17.517.537-23.493 1.534h.024c-.826.126-1.732.203-2.716.203-5.164.062-12.312-2.392-18.797-5.935a9.904 9.904 0 0 0-12.705 2.915L77.86 260.171c-2.424 3.34-2.511 7.866-.227 11.311 1.806 2.706 3.316 5.515 4.313 8.326 1.433 3.968 3.508 7.573 5.903 11.081 2.398 3.493 5.136 6.882 7.994 10.118l1.12 1.073s5.125 4.226 13.291 10.948c-2.131 3.055-3.302 6.681-3.344 10.502a18.774 18.774 0 0 0 5.384 13.41 18.74 18.74 0 0 0 13.497 5.676c3.588 0 7.018-1.032 10.006-2.922a18.787 18.787 0 0 0-3.148 10.209 18.73 18.73 0 0 0 5.383 13.396c3.577 3.668 8.372 5.683 13.497 5.683 4.026 0 7.837-1.311 11.052-3.654-5.85 7.336-5.533 18.039 1.192 24.922a18.734 18.734 0 0 0 13.486 5.669h.004c4.965 0 9.658-1.917 13.228-5.411l3.49-3.466c-1.461 2.678-2.333 5.648-2.368 8.78a18.765 18.765 0 0 0 5.383 13.409 18.757 18.757 0 0 0 13.497 5.669c4.961 0 9.65-1.91 13.252-5.425l2.124-2.155c1.063.837 2.033 1.59 2.824 2.204.648.488 1.2.907 1.705 1.27l.75.53 1.063.656c3.992 2.189 7.81 3.138 10.846 3.807 1.513.314 2.81.53 3.772.662l1.172.154.366.035.139.014.087.014.094.007.126.007c.115 0 .059.014.665.028l.715-.028c6.65-.488 12.946-2.776 18.114-6.722 2.056-1.576 3.856-3.48 5.467-5.564 3.183 1.032 6.554 1.645 10.062 1.645 14.228-.006 26.202-9.079 30.839-21.7.516-.035 1.029-.056 1.537-.188 1.806.328 3.637.565 5.533.565 14.118-.014 26.066-8.911 30.78-21.366.032-.028.063-.041.094-.063l1.108.105c18.238 0 33.001-14.777 33.008-33.004a51.937 51.937 0 0 0-2.618-16.485c12.517-11.059 30.86-28.144 34.176-37.418 1.597-4.463 10.575-15.166 13.183-18.814l-70.621-97.394c-9.007 5.1-26.486 15.937-36.147 14.319zm42.215 155.788c-.01 7.287-5.906 13.186-13.194 13.2-1.806 0-3.493-.362-5.065-1.018-.157-.07-.321-.084-.478-.133l-12.238-14.888c-3.096-3.584-8.518-3.988-12.106-.893-3.591 3.096-3.988 8.522-.889 12.113l11.837 14.427c-.757 6.562-6.272 11.701-13.044 11.708-3.215-.007-6.066-1.15-8.399-3.068l-11.746-14.324c-3.1-3.584-8.522-3.981-12.109-.885-3.592 3.096-3.986 8.522-.89 12.105l8.183 10.196c-.014.634-.076 1.269.035 1.904.143.802.209 1.526.209 2.196-.01 7.294-5.909 13.186-13.193 13.2-1.904 0-3.657-.439-5.275-1.15l-14.316-15.048a8.582 8.582 0 0 0-12.137.376c-3.253 3.452-3.085 8.891.366 12.133l6.718 7.88c-.673 1.444-1.569 2.748-2.932 3.807-1.747 1.339-4.149 2.259-6.882 2.566-.798-.118-1.883-.3-3.173-.606-1.6-.362-3.288-.955-4.163-1.416a81.662 81.662 0 0 1-2.196-1.674 134.862 134.862 0 0 1-2.158-1.687c1.45-6.094-.112-12.775-4.815-17.586a18.736 18.736 0 0 0-13.497-5.676c-2.88 0-5.641.711-8.18 1.946l-.076-.063.087-.098a18.76 18.76 0 0 0 5.672-13.29 18.744 18.744 0 0 0-5.39-13.403 18.755 18.755 0 0 0-13.493-5.676c-4.003 0-7.796 1.296-10.997 3.612 2.59-3.264 4.094-7.225 4.139-11.457a18.73 18.73 0 0 0-5.384-13.403c-3.58-3.668-8.374-5.683-13.496-5.683-4.961 0-9.651 1.911-13.221 5.411l-3.183 3.166c3.926-7.113 3.02-16.22-2.943-22.314a18.748 18.748 0 0 0-13.5-5.676c-4.961 0-9.651 1.91-13.228 5.411l-2.106 2.113c-1.496-1.235-2.964-2.441-4.261-3.508a3550.511 3550.511 0 0 1-9.581-7.894c-2.28-2.601-4.39-5.216-6.039-7.642-1.771-2.566-3.026-4.944-3.591-6.555a52.943 52.943 0 0 0-2.897-6.596l62.57-86.279c6.186 2.587 12.953 4.532 20.258 4.582 1.945 0 3.936-.14 5.954-.474h.025c4.166-.711 11.592-1.27 20.205-1.255a223.41 223.41 0 0 1 18.315.739l.436.028c1.569.042 4.181.6 7.353 1.883l.718.328c-26.728 12.07-64.606 35.292-77.054 39.447-14.215 4.735-15.404 23.695 16.579 27.244 31.989 3.563 60.419-16.589 67.525-20.131 5.101-2.552 37.508.565 55.458 2.531 7.915 7.817 14.853 15.069 19.912 20.55l39.423 48.198.174.196c5.052 5.85 7.793 10.598 9.348 14.671 1.539 4.072 2.006 7.586 2.016 11.582zM510.641 229.622 415.374 98.233c-2.305-3.187-6.747-3.884-9.927-1.583l-42.198 30.599c-3.18 2.301-3.888 6.75-1.58 9.93l95.268 131.389a7.11 7.11 0 0 0 9.926 1.59l42.205-30.605c3.174-2.31 3.885-6.752 1.573-9.931zm-32.415 11.805c-5.293 3.835-12.705 2.65-16.548-2.643-3.839-5.292-2.656-12.698 2.643-16.54 5.296-3.842 12.702-2.657 16.544 2.628 3.839 5.3 2.657 12.713-2.639 16.555zM148.757 127.248l-42.206-30.599a7.103 7.103 0 0 0-9.926 1.583L1.354 229.622c-2.308 3.18-1.59 7.622 1.583 9.93l42.198 30.605a7.104 7.104 0 0 0 9.922-1.59l95.272-131.389c2.308-3.18 1.6-7.629-1.572-9.93zm-28.203 14.672c-3.839 5.293-11.248 6.478-16.544 2.636-5.3-3.835-6.481-11.255-2.64-16.54 3.838-5.3 11.248-6.485 16.544-2.642 5.303 3.841 6.475 11.246 2.64 16.546z"/></svg>