<svg xmlns="http://www.w3.org/2000/svg" width="61.138" height="76.211" viewBox="0 0 61.138 76.211">
  <g id="Group_28" data-name="Group 28" transform="translate(61.138 76.211) rotate(180)">
    <path id="Path_1" data-name="Path 1" d="M27.272,108.452a2.272,2.272,0,0,0-2.265,2.265v8.169a2.266,2.266,0,0,0,4.532,0v-8.169A2.273,2.273,0,0,0,27.272,108.452Z" transform="translate(-25.007 -50.541)" fill="#052a80"/>
    <path id="Path_2" data-name="Path 2" d="M78.381,72.986a2.273,2.273,0,0,0-2.266,2.266v31.965a2.266,2.266,0,1,0,4.532,0V75.252A2.273,2.273,0,0,0,78.381,72.986Z" transform="translate(-28.369 -48.208)" fill="#4aa958"/>
    <path id="Path_3" data-name="Path 3" d="M68.645,90.72a2.273,2.273,0,0,0-2.265,2.266v30.18a2.266,2.266,0,1,0,4.532,0V92.986A2.273,2.273,0,0,0,68.645,90.72Z" transform="translate(-27.729 -49.375)" fill="#37a36a"/>
    <path id="Path_4" data-name="Path 4" d="M68.645,73.831A2.272,2.272,0,0,0,66.38,76.1v8.012a2.266,2.266,0,1,0,4.532,0V76.1A2.273,2.273,0,0,0,68.645,73.831Z" transform="translate(-27.729 -48.264)" fill="#37a36a"/>
    <path id="Path_5" data-name="Path 5" d="M78.381,115.853a2.273,2.273,0,0,0-2.266,2.265v6.7a2.266,2.266,0,1,0,4.532,0v-6.7A2.272,2.272,0,0,0,78.381,115.853Z" transform="translate(-28.369 -51.028)" fill="#4aa958"/>
    <path id="Path_6" data-name="Path 6" d="M88.021,84.68A2.024,2.024,0,0,0,86,86.7v36.319a2.018,2.018,0,1,0,4.036,0V86.7A2.024,2.024,0,0,0,88.021,84.68Z" transform="translate(-29.02 -48.977)" fill="#74b538"/>
    <path id="Path_7" data-name="Path 7" d="M36.966,89.191A2.42,2.42,0,0,0,34.553,91.6v31.3a2.414,2.414,0,1,0,4.827,0V91.6A2.42,2.42,0,0,0,36.966,89.191Z" transform="translate(-25.635 -49.274)" fill="#004485"/>
    <ellipse id="Ellipse_1" data-name="Ellipse 1" cx="2.266" cy="2.266" rx="2.266" ry="2.266" transform="translate(0 50.411)" fill="#052a80"/>
    <path id="Path_8" data-name="Path 8" d="M57.946,67.5a2.954,2.954,0,0,0-2.951,2.952v50.655a2.951,2.951,0,1,0,5.9,0V70.452A2.954,2.954,0,0,0,57.946,67.5Z" transform="translate(-26.98 -47.847)" fill="#17988b"/>
    <path id="Path_9" data-name="Path 9" d="M47,89.042a2.584,2.584,0,0,0-2.577,2.577v23.4a2.576,2.576,0,1,0,5.152,0v-23.4A2.584,2.584,0,0,0,47,89.042Z" transform="translate(-26.284 -49.264)" fill="#006a88"/>
    <ellipse id="Ellipse_2" data-name="Ellipse 2" cx="2.529" cy="2.529" rx="2.529" ry="2.529" transform="translate(18.237 71.152)" fill="#006a88"/>
    <ellipse id="Ellipse_3" data-name="Ellipse 3" cx="2.399" cy="2.399" rx="2.399" ry="2.399" transform="translate(47.685 15.372)" fill="#4aa958"/>
    <ellipse id="Ellipse_4" data-name="Ellipse 4" cx="2.136" cy="2.136" rx="2.136" ry="2.136" transform="translate(56.865 28.93)" fill="#74b538"/>
    <ellipse id="Ellipse_5" data-name="Ellipse 5" cx="2.668" cy="2.668" rx="2.668" ry="2.668" transform="translate(38.248 6.804)" fill="#37a36a"/>
    <ellipse id="Ellipse_6" data-name="Ellipse 6" cx="1.7" cy="1.7" rx="1.7" ry="1.7" transform="translate(48.384 8.415)" fill="#4aa958"/>
    <ellipse id="Ellipse_7" data-name="Ellipse 7" cx="1.7" cy="1.7" rx="1.7" ry="1.7" transform="translate(39.217 0)" fill="#37a36a"/>
    <ellipse id="Ellipse_8" data-name="Ellipse 8" cx="2.951" cy="2.951" rx="2.951" ry="2.951" transform="translate(28.016 10.114)" fill="#17988b"/>
    <ellipse id="Ellipse_9" data-name="Ellipse 9" cx="2.951" cy="2.951" rx="2.951" ry="2.951" transform="translate(37.966 16.015)" fill="#37a36a"/>
  </g>
</svg>
