<svg xmlns="http://www.w3.org/2000/svg" width="198.003" height="49.604" viewBox="0 0 198.003 49.604">
  <g id="Group_3" data-name="Group 3" transform="translate(-25.007 -46.463)">
    <path id="Path_1" data-name="Path 1" d="M26.063,108.452a1.059,1.059,0,0,0-1.056,1.056v3.808a1.056,1.056,0,0,0,2.112,0v-3.808A1.059,1.059,0,0,0,26.063,108.452Z" transform="translate(0 -34.995)" fill="#052a80"/>
    <path id="Path_2" data-name="Path 2" d="M77.171,72.986a1.06,1.06,0,0,0-1.056,1.056v14.9a1.056,1.056,0,1,0,2.112,0v-14.9A1.059,1.059,0,0,0,77.171,72.986Z" transform="translate(-28.853 -14.973)" fill="#4aa958"/>
    <path id="Path_3" data-name="Path 3" d="M67.436,90.72a1.059,1.059,0,0,0-1.056,1.056v14.067a1.056,1.056,0,1,0,2.112,0V91.776A1.06,1.06,0,0,0,67.436,90.72Z" transform="translate(-23.357 -24.985)" fill="#37a36a"/>
    <path id="Path_4" data-name="Path 4" d="M67.436,73.831a1.059,1.059,0,0,0-1.056,1.056v3.734a1.056,1.056,0,1,0,2.112,0V74.887A1.059,1.059,0,0,0,67.436,73.831Z" transform="translate(-23.357 -15.45)" fill="#37a36a"/>
    <path id="Path_5" data-name="Path 5" d="M77.171,115.853a1.059,1.059,0,0,0-1.056,1.056v3.124a1.056,1.056,0,1,0,2.112,0v-3.124A1.059,1.059,0,0,0,77.171,115.853Z" transform="translate(-28.853 -39.174)" fill="#4aa958"/>
    <path id="Path_6" data-name="Path 6" d="M86.944,84.68a.943.943,0,0,0-.941.941V102.55a.941.941,0,1,0,1.881,0V85.621A.943.943,0,0,0,86.944,84.68Z" transform="translate(-34.435 -21.575)" fill="#74b538"/>
    <path id="Path_7" data-name="Path 7" d="M35.678,89.191a1.128,1.128,0,0,0-1.125,1.125v14.589a1.125,1.125,0,1,0,2.25,0V90.316A1.128,1.128,0,0,0,35.678,89.191Z" transform="translate(-5.389 -24.122)" fill="#004485"/>
    <circle id="Ellipse_1" data-name="Ellipse 1" cx="1.056" cy="1.056" r="1.056" transform="translate(25.007 69.961)" fill="#052a80"/>
    <path id="Path_8" data-name="Path 8" d="M56.371,67.5A1.377,1.377,0,0,0,55,68.876V92.487a1.375,1.375,0,1,0,2.751,0V68.876A1.377,1.377,0,0,0,56.371,67.5Z" transform="translate(-16.93 -11.876)" fill="#17988b"/>
    <path id="Path_9" data-name="Path 9" d="M45.628,89.042a1.2,1.2,0,0,0-1.2,1.2v10.909a1.2,1.2,0,1,0,2.4,0V90.243A1.2,1.2,0,0,0,45.628,89.042Z" transform="translate(-10.964 -24.038)" fill="#006a88"/>
    <circle id="Ellipse_2" data-name="Ellipse 2" cx="1.179" cy="1.179" r="1.179" transform="translate(33.507 79.629)" fill="#006a88"/>
    <circle id="Ellipse_3" data-name="Ellipse 3" cx="1.118" cy="1.118" r="1.118" transform="translate(47.234 53.628)" fill="#4aa958"/>
    <circle id="Ellipse_4" data-name="Ellipse 4" cx="0.996" cy="0.996" r="0.996" transform="translate(51.513 59.948)" fill="#74b538"/>
    <circle id="Ellipse_5" data-name="Ellipse 5" cx="1.244" cy="1.244" r="1.244" transform="translate(42.835 49.634)" fill="#37a36a"/>
    <circle id="Ellipse_6" data-name="Ellipse 6" cx="0.792" cy="0.792" r="0.792" transform="translate(47.56 50.385)" fill="#4aa958"/>
    <circle id="Ellipse_7" data-name="Ellipse 7" cx="0.792" cy="0.792" r="0.792" transform="translate(43.287 46.463)" fill="#37a36a"/>
    <circle id="Ellipse_8" data-name="Ellipse 8" cx="1.375" cy="1.375" r="1.375" transform="translate(38.065 51.177)" fill="#17988b"/>
    <circle id="Ellipse_9" data-name="Ellipse 9" cx="1.375" cy="1.375" r="1.375" transform="translate(42.704 53.928)" fill="#37a36a"/>
    <g id="Group_1" data-name="Group 1" transform="translate(105.225 88.03)">
      <path id="Path_10" data-name="Path 10" d="M213.049,149.222a3.874,3.874,0,0,0,1.012-.111,4.6,4.6,0,0,0,.764-.286l.211.72a3.968,3.968,0,0,1-.9.3,5.823,5.823,0,0,1-1.2.105,4,4,0,0,1-1.447-.261,3.315,3.315,0,0,1-1.18-.77,3.654,3.654,0,0,1-.795-1.255,4.712,4.712,0,0,1-.292-1.727,4.876,4.876,0,0,1,.28-1.708,3.569,3.569,0,0,1,.783-1.267,3.337,3.337,0,0,1,1.186-.783,4.061,4.061,0,0,1,1.491-.267,5.249,5.249,0,0,1,1.218.118,3.993,3.993,0,0,1,.894.329l-.211.7a4.3,4.3,0,0,0-.839-.311,3.915,3.915,0,0,0-.925-.1,3.318,3.318,0,0,0-1.112.186,2.444,2.444,0,0,0-.926.584,2.914,2.914,0,0,0-.64,1.025,4.884,4.884,0,0,0,0,3.037,2.739,2.739,0,0,0,.646,1.006,2.44,2.44,0,0,0,.919.559A3.291,3.291,0,0,0,213.049,149.222Z" transform="translate(-209.223 -141.918)" fill="#2e3192"/>
      <path id="Path_11" data-name="Path 11" d="M238.434,142.147h.833l3.031,7.826h-.944l-.857-2.236h-3.354l-.857,2.236h-.931Zm-1.043,4.869h2.832l-.621-1.677q-.174-.434-.361-.988t-.4-1.211h-.025c-.067.215-.132.418-.2.609s-.13.372-.192.546-.124.346-.186.516-.13.346-.205.528Z" transform="translate(-223.975 -142.047)" fill="#2e3192"/>
      <path id="Path_12" data-name="Path 12" d="M265.335,142.147h.807l3.491,5.056q.236.347.466.7t.441.7h.025q-.025-.461-.031-.913t-.006-.914v-4.621h.869v7.826h-.807l-3.416-4.907q-.261-.373-.516-.8t-.478-.851h-.025q.025.559.037,1.1c.008.361.013.726.013,1.1v4.36h-.87Z" transform="translate(-240.901 -142.047)" fill="#2e3192"/>
      <path id="Path_13" data-name="Path 13" d="M296.343,142.147h.832l3.031,7.826h-.944l-.857-2.236h-3.354l-.857,2.236h-.932Zm-1.043,4.869h2.832l-.621-1.677q-.174-.434-.361-.988t-.4-1.211h-.025q-.1.323-.2.609t-.192.546q-.093.261-.186.516t-.205.528Z" transform="translate(-256.667 -142.047)" fill="#2e3192"/>
      <path id="Path_14" data-name="Path 14" d="M325.666,142.147a4.561,4.561,0,0,1,1.485.236,3.144,3.144,0,0,1,1.969,1.869,4.315,4.315,0,0,1,.286,1.633,4.857,4.857,0,0,1-.335,1.913,3.364,3.364,0,0,1-.907,1.267,3.462,3.462,0,0,1-1.329.7,5.931,5.931,0,0,1-1.6.212h-1.987v-7.826Zm-1.528,7.093h.982a5.2,5.2,0,0,0,1.217-.143,2.686,2.686,0,0,0,1.068-.522,2.659,2.659,0,0,0,.758-1.032,4.148,4.148,0,0,0,.286-1.658,3.519,3.519,0,0,0-.217-1.279,2.652,2.652,0,0,0-.609-.944,2.552,2.552,0,0,0-.951-.584,3.651,3.651,0,0,0-1.23-.2h-1.3Z" transform="translate(-273.593 -142.047)" fill="#2e3192"/>
      <path id="Path_15" data-name="Path 15" d="M352.969,142.147h.832l3.031,7.826h-.944l-.857-2.236h-3.354l-.857,2.236h-.932Zm-1.044,4.869h2.833l-.621-1.677q-.174-.434-.36-.988t-.4-1.211h-.025q-.1.323-.2.609t-.192.546q-.093.261-.187.516t-.2.528Z" transform="translate(-288.634 -142.047)" fill="#2e3192"/>
    </g>
    <g id="Group_2" data-name="Group 2" transform="translate(61.531 61.57)">
      <path id="Path_16" data-name="Path 16" d="M116.723,83.608a8.39,8.39,0,0,1,3.2.632,8.014,8.014,0,0,1,2.726,1.841,10.226,10.226,0,0,1,0,13.656,8.007,8.007,0,0,1-2.726,1.841,8.382,8.382,0,0,1-3.2.632h-7.84v-18.6Zm-.084,16.607a5.922,5.922,0,0,0,4.749-2.164,8.354,8.354,0,0,0,0-10.284,5.924,5.924,0,0,0-4.749-2.164h-5.648v14.612Z" transform="translate(-108.883 -82.54)" fill="#2e3192"/>
      <path id="Path_17" data-name="Path 17" d="M155.359,82.318v2.753h-2.276V82.318Zm-2.192,5.114h2.108v14.05h-2.108Z" transform="translate(-133.836 -81.812)" fill="#2e3192"/>
      <path id="Path_18" data-name="Path 18" d="M176.334,96.019V93.77h2.108V107.4a5.964,5.964,0,0,1-1.728,4.622,6.61,6.61,0,0,1-4.65,1.588,8.011,8.011,0,0,1-4.566-1.124,5.571,5.571,0,0,1-2.233-2.979h2.332q.9,2.191,4.1,2.191a4.779,4.779,0,0,0,3.541-1.124,4.567,4.567,0,0,0,1.1-3.316v-1.939a5.709,5.709,0,0,1-5.03,2.5,6.408,6.408,0,0,1-4.945-2.079,7.824,7.824,0,0,1,0-10.116,6.593,6.593,0,0,1,5.1-2.079A5.538,5.538,0,0,1,176.334,96.019Zm-4.749,9.891a4.919,4.919,0,0,0,2.051-.407,4.721,4.721,0,0,0,1.545-1.11,6.072,6.072,0,0,0,0-7.418,4.629,4.629,0,0,0-3.6-1.518,4.694,4.694,0,0,0-3.653,1.518,5.868,5.868,0,0,0,0,7.418A4.693,4.693,0,0,0,171.585,105.909Z" transform="translate(-140.283 -88.151)" fill="#2e3192"/>
      <path id="Path_19" data-name="Path 19" d="M205.689,82.318v2.753h-2.276V82.318ZM203.5,87.432H205.6v14.05H203.5Z" transform="translate(-162.249 -81.812)" fill="#2e3192"/>
      <path id="Path_20" data-name="Path 20" d="M216.6,101.591V89.4h-2.866V87.541H216.6V82.512h2.108v5.029h3.232V89.4H218.71v12.195Z" transform="translate(-168.078 -81.922)" fill="#2e3192"/>
      <path id="Path_21" data-name="Path 21" d="M247.375,105.572a5.686,5.686,0,0,1-5.03,2.473,6.369,6.369,0,0,1-4.945-2.108,8.056,8.056,0,0,1,0-10.284,6.531,6.531,0,0,1,5.086-2.107,5.575,5.575,0,0,1,4.889,2.5V93.77h2.108v14.05h-2.108Zm-4.749.562a4.446,4.446,0,0,0,3.6-1.573,6.238,6.238,0,0,0,0-7.53,4.449,4.449,0,0,0-3.6-1.574,4.668,4.668,0,0,0-3.653,1.574,6.027,6.027,0,0,0,0,7.53A4.665,4.665,0,0,0,242.626,106.134Z" transform="translate(-180.389 -88.151)" fill="#2e3192"/>
      <path id="Path_22" data-name="Path 22" d="M278.046,100.825h-2.108V81.156h2.108Z" transform="translate(-203.193 -81.156)" fill="#2e3192"/>
      <path id="Path_23" data-name="Path 23" d="M314.972,83.608v18.6h-2.108V93.921H302.046v8.289h-2.107v-18.6h2.107v8.261h10.818V83.608Z" transform="translate(-216.742 -82.54)" fill="#2e3192"/>
      <path id="Path_24" data-name="Path 24" d="M347.146,106.134a4.251,4.251,0,0,0,4.075-2.36h2.3a6.783,6.783,0,0,1-2.318,3.091,6.673,6.673,0,0,1-4.088,1.181,6.8,6.8,0,0,1-5.17-2.108,7.192,7.192,0,0,1-1.939-5.142,7.315,7.315,0,0,1,1.855-5.142,7.259,7.259,0,0,1,10.228,0,7.316,7.316,0,0,1,1.855,5.142v.843H342.173a5.1,5.1,0,0,0,1.545,3.2A4.751,4.751,0,0,0,347.146,106.134Zm-.168-10.677a4.651,4.651,0,0,0-3.259,1.208,4.987,4.987,0,0,0-1.517,3.006h9.553a4.994,4.994,0,0,0-1.518-3.006A4.651,4.651,0,0,0,346.978,95.456Z" transform="translate(-239.363 -88.151)" fill="#2e3192"/>
      <path id="Path_25" data-name="Path 25" d="M389.07,105.572a5.686,5.686,0,0,1-5.03,2.473,6.369,6.369,0,0,1-4.945-2.108,8.056,8.056,0,0,1,0-10.284,6.531,6.531,0,0,1,5.086-2.107,5.575,5.575,0,0,1,4.889,2.5V93.77h2.108v14.05H389.07Zm-4.749.562a4.446,4.446,0,0,0,3.6-1.573,6.238,6.238,0,0,0,0-7.53,4.449,4.449,0,0,0-3.6-1.574,4.668,4.668,0,0,0-3.653,1.574,6.027,6.027,0,0,0,0,7.53A4.665,4.665,0,0,0,384.321,106.134Z" transform="translate(-260.382 -88.151)" fill="#2e3192"/>
      <path id="Path_26" data-name="Path 26" d="M419.1,100.825h-2.108V81.156H419.1Z" transform="translate(-282.821 -81.156)" fill="#2e3192"/>
      <path id="Path_27" data-name="Path 27" d="M429.984,101.591V89.4h-2.866V87.541h2.866V82.512h2.107v5.029h3.232V89.4h-3.232v12.195Z" transform="translate(-288.54 -81.922)" fill="#2e3192"/>
      <path id="Path_28" data-name="Path 28" d="M453.358,81.156v7.812a7.047,7.047,0,0,1,1.855-1.714,4.533,4.533,0,0,1,2.5-.7,6.671,6.671,0,0,1,2.417.393,4.9,4.9,0,0,1,1.77,1.18,6.063,6.063,0,0,1,1.742,4.524v8.177h-2.108V92.7a4.3,4.3,0,0,0-1.1-3.091,3.741,3.741,0,0,0-2.838-1.152,4.2,4.2,0,0,0-3.007,1.18,4.136,4.136,0,0,0-1.236,3.091v8.093h-2.107V81.156Z" transform="translate(-302.164 -81.156)" fill="#2e3192"/>
    </g>
  </g>
</svg>
