<svg width="277" height="95" viewBox="0 0 277 95" fill="none" xmlns="http://www.w3.org/2000/svg">
<g clip-path="url(#clip0_2_3)">
<g filter="url(#filter0_d_2_3)">
<path d="M222.52 95.392H211V4H262.072V14.112H222.52V46.496H259.64V56.608H222.52V95.392Z" fill="white"/>
</g>
<g filter="url(#filter1_d_2_3)">
<path d="M196.448 95.392H183.008L134.112 19.488H133.6C133.685 21.024 133.771 22.7307 133.856 24.608C134.027 26.4853 134.155 28.5333 134.24 30.752C134.325 32.8853 134.411 35.104 134.496 37.408C134.581 39.712 134.624 42.016 134.624 44.32V95.392H124V4H137.312L186.08 79.648H186.592C186.507 78.624 186.421 77.216 186.336 75.424C186.251 73.5467 186.165 71.4987 186.08 69.28C185.995 66.976 185.909 64.6293 185.824 62.24C185.739 59.8507 185.696 57.632 185.696 55.584V4H196.448V95.392Z" fill="white"/>
</g>
<g filter="url(#filter2_d_2_3)">
<path d="M108.16 26.728V95.336H96.896V26.728H108.16ZM102.656 1C104.363 1 105.856 1.59733 107.136 2.792C108.501 3.90133 109.184 5.69333 109.184 8.168C109.184 10.5573 108.501 12.3493 107.136 13.544C105.856 14.7387 104.363 15.336 102.656 15.336C100.779 15.336 99.2 14.7387 97.92 13.544C96.64 12.3493 96 10.5573 96 8.168C96 5.69333 96.64 3.90133 97.92 2.792C99.2 1.59733 100.779 1 102.656 1Z" fill="#61F6A2"/>
</g>
<g filter="url(#filter3_d_2_3)">
<path d="M81.888 95.392H70.368V52.768H23.52V95.392H12V4H23.52V42.656H70.368V4H81.888V95.392Z" fill="white"/>
</g>
</g>
<defs>
<filter id="filter0_d_2_3" x="207" y="4" width="59.072" height="99.392" filterUnits="userSpaceOnUse" color-interpolation-filters="sRGB">
<feFlood flood-opacity="0" result="BackgroundImageFix"/>
<feColorMatrix in="SourceAlpha" type="matrix" values="0 0 0 0 0 0 0 0 0 0 0 0 0 0 0 0 0 0 127 0" result="hardAlpha"/>
<feOffset dy="4"/>
<feGaussianBlur stdDeviation="2"/>
<feComposite in2="hardAlpha" operator="out"/>
<feColorMatrix type="matrix" values="0 0 0 0 0 0 0 0 0 0 0 0 0 0 0 0 0 0 0.25 0"/>
<feBlend mode="normal" in2="BackgroundImageFix" result="effect1_dropShadow_2_3"/>
<feBlend mode="normal" in="SourceGraphic" in2="effect1_dropShadow_2_3" result="shape"/>
</filter>
<filter id="filter1_d_2_3" x="120" y="4" width="80.448" height="99.392" filterUnits="userSpaceOnUse" color-interpolation-filters="sRGB">
<feFlood flood-opacity="0" result="BackgroundImageFix"/>
<feColorMatrix in="SourceAlpha" type="matrix" values="0 0 0 0 0 0 0 0 0 0 0 0 0 0 0 0 0 0 127 0" result="hardAlpha"/>
<feOffset dy="4"/>
<feGaussianBlur stdDeviation="2"/>
<feComposite in2="hardAlpha" operator="out"/>
<feColorMatrix type="matrix" values="0 0 0 0 0 0 0 0 0 0 0 0 0 0 0 0 0 0 0.25 0"/>
<feBlend mode="normal" in2="BackgroundImageFix" result="effect1_dropShadow_2_3"/>
<feBlend mode="normal" in="SourceGraphic" in2="effect1_dropShadow_2_3" result="shape"/>
</filter>
<filter id="filter2_d_2_3" x="92" y="1" width="21.184" height="102.336" filterUnits="userSpaceOnUse" color-interpolation-filters="sRGB">
<feFlood flood-opacity="0" result="BackgroundImageFix"/>
<feColorMatrix in="SourceAlpha" type="matrix" values="0 0 0 0 0 0 0 0 0 0 0 0 0 0 0 0 0 0 127 0" result="hardAlpha"/>
<feOffset dy="4"/>
<feGaussianBlur stdDeviation="2"/>
<feComposite in2="hardAlpha" operator="out"/>
<feColorMatrix type="matrix" values="0 0 0 0 0 0 0 0 0 0 0 0 0 0 0 0 0 0 0.25 0"/>
<feBlend mode="normal" in2="BackgroundImageFix" result="effect1_dropShadow_2_3"/>
<feBlend mode="normal" in="SourceGraphic" in2="effect1_dropShadow_2_3" result="shape"/>
</filter>
<filter id="filter3_d_2_3" x="8" y="4" width="77.888" height="99.392" filterUnits="userSpaceOnUse" color-interpolation-filters="sRGB">
<feFlood flood-opacity="0" result="BackgroundImageFix"/>
<feColorMatrix in="SourceAlpha" type="matrix" values="0 0 0 0 0 0 0 0 0 0 0 0 0 0 0 0 0 0 127 0" result="hardAlpha"/>
<feOffset dy="4"/>
<feGaussianBlur stdDeviation="2"/>
<feComposite in2="hardAlpha" operator="out"/>
<feColorMatrix type="matrix" values="0 0 0 0 0 0 0 0 0 0 0 0 0 0 0 0 0 0 0.25 0"/>
<feBlend mode="normal" in2="BackgroundImageFix" result="effect1_dropShadow_2_3"/>
<feBlend mode="normal" in="SourceGraphic" in2="effect1_dropShadow_2_3" result="shape"/>
</filter>
<clipPath id="clip0_2_3">
<rect width="276.197" height="94.336" fill="white" transform="translate(0.416 0.663994)"/>
</clipPath>
</defs>
</svg>
